<?xml version="1.0" encoding="utf-8"?>
<!-- Generator: Adobe Illustrator 18.1.0, SVG Export Plug-In . SVG Version: 6.00 Build 0)  -->
<!DOCTYPE svg PUBLIC "-//W3C//DTD SVG 1.1//EN" "http://www.w3.org/Graphics/SVG/1.1/DTD/svg11.dtd">
<svg version="1.1" id="Laag_1" xmlns="http://www.w3.org/2000/svg" xmlns:xlink="http://www.w3.org/1999/xlink" x="0px" y="0px"
	 width="1280px" height="720px" viewBox="0 0 1280 720" enable-background="new 0 0 1280 720" xml:space="preserve">
<rect fill="#CCCCCC" width="1280" height="720"/>
<g>
	<path fill="#5D91FF" d="M545.9,566.2c-58.8,0-113.5-17.2-159.5-46.8c8.1,1,16.4,1.5,24.8,1.5c48.8,0,93.6-16.6,129.2-44.5
		c-45.5-0.8-84-30.9-97.2-72.3c6.4,1.2,12.9,1.9,19.6,1.9c9.5,0,18.7-1.3,27.4-3.6c-47.6-9.6-83.5-51.6-83.5-102c0-0.4,0-0.9,0-1.3
		c14,7.8,30.1,12.5,47.1,13c-27.9-18.7-46.3-50.5-46.3-86.6c0-19.1,5.1-36.9,14.1-52.3c51.3,63,128,104.4,214.5,108.7
		c-1.8-7.6-2.7-15.6-2.7-23.7c0-57.5,46.6-104.1,104.1-104.1c29.9,0,57,12.6,76,32.9c23.7-4.7,46-13.3,66.1-25.3
		c-7.8,24.3-24.3,44.7-45.8,57.6c21.1-2.5,41.1-8.1,59.8-16.4c-14,20.9-31.6,39.2-51.9,53.9c0.2,4.5,0.3,8.9,0.3,13.5
		C841.9,407.6,737.3,566.2,545.9,566.2"/>
</g>
</svg>
